<svg id="Capa_1" data-name="Capa 1" xmlns="http://www.w3.org/2000/svg" viewBox="0 0 100 100"><defs><style>.cls-1{fill:#fbbb00;}.cls-2{fill:#518ef8;}.cls-3{fill:#28b446;}.cls-4{fill:#f14336;}</style></defs><title>google</title><path class="cls-1" d="M22.16,60.43l-3.48,13L6,73.69A50.07,50.07,0,0,1,5.59,27h0l11.33,2.07,5,11.26a29.91,29.91,0,0,0,.28,20.09Z"/><path class="cls-2" d="M99.13,40.66A50,50,0,0,1,81.3,89h0L67,88.26l-2-12.6A29.84,29.84,0,0,0,77.84,60.44H51.1V40.66h48Z"/><path class="cls-3" d="M81.3,89h0A50,50,0,0,1,6,73.7l16.2-13.27A29.75,29.75,0,0,0,65,75.66Z"/><path class="cls-4" d="M81.91,11.51,65.72,24.77A29.75,29.75,0,0,0,21.88,40.34L5.59,27h0a50,50,0,0,1,76.32-15.5Z"/></svg>